<svg width="24" height="24" viewBox="0 0 24 24" fill="none" xmlns="http://www.w3.org/2000/svg">
<path fill-rule="evenodd" clip-rule="evenodd" d="M12.3876 8.22953C12.602 8.44346 12.6024 8.79069 12.3885 9.00509L4.74561 16.6649C4.73724 16.6733 4.72861 16.6814 4.71972 16.6892C4.53136 16.855 4.37899 17.0576 4.27201 17.2846C4.16503 17.5115 4.10572 17.758 4.09773 18.0088C4.08974 18.2596 4.13325 18.5094 4.22557 18.7427C4.31789 18.976 4.45706 19.1879 4.63449 19.3653C4.81191 19.5428 5.02382 19.6819 5.25714 19.7742C5.49046 19.8666 5.74022 19.9101 5.99101 19.9021C6.2418 19.8941 6.48829 19.8348 6.71526 19.7278C6.94222 19.6208 7.14485 19.4685 7.31063 19.2801C7.31845 19.2712 7.32656 19.2626 7.33494 19.2542L14.9947 11.6113C15.2091 11.3974 15.5564 11.3978 15.7703 11.6122C15.9842 11.8266 15.9838 12.1738 15.7694 12.3877L8.12157 20.0187C7.85907 20.3132 7.53982 20.5517 7.18288 20.7199C6.82031 20.8908 6.42655 20.9856 6.02592 20.9983C5.6253 21.0111 5.22631 20.9416 4.8536 20.7941C4.48088 20.6466 4.14236 20.4243 3.85893 20.1409C3.5755 19.8575 3.35318 19.5189 3.20571 19.1462C3.05823 18.7735 2.98873 18.3745 3.00149 17.9739C3.01425 17.5733 3.109 17.1795 3.27989 16.8169C3.44813 16.46 3.68665 16.1407 3.9811 15.8782L11.6121 8.23039C11.826 8.01599 12.1732 8.0156 12.3876 8.22953Z" fill="white"/>
<path fill-rule="evenodd" clip-rule="evenodd" d="M16.2276 4.09338C14.1958 4.09338 12.5487 5.74046 12.5487 7.77224C12.5487 9.80401 14.1958 11.4511 16.2276 11.4511C18.2593 11.4511 19.9064 9.80401 19.9064 7.77224C19.9064 5.74046 18.2593 4.09338 16.2276 4.09338ZM11.4519 7.77224C11.4519 5.13472 13.59 2.99658 16.2276 2.99658C18.8651 2.99658 21.0032 5.13472 21.0032 7.77224C21.0032 10.4098 18.8651 12.5479 16.2276 12.5479C13.59 12.5479 11.4519 10.4098 11.4519 7.77224Z" fill="white"/>
</svg>
