<svg width="24" height="24" viewBox="0 0 24 24" fill="none" xmlns="http://www.w3.org/2000/svg">
<path fill-rule="evenodd" clip-rule="evenodd" d="M20.4806 2.42419C20.6513 2.56669 20.75 2.77761 20.75 3.00001V14V17C20.75 18.5188 19.5188 19.75 18 19.75H17C15.4812 19.75 14.25 18.5188 14.25 17V16C14.25 14.4812 15.4812 13.25 17 13.25H19.25V3.89867L9.75 5.62594V16V19C9.75 20.5188 8.51878 21.75 7 21.75H6C4.48122 21.75 3.25 20.5188 3.25 19V18C3.25 16.4812 4.48122 15.25 6 15.25H8.25V5.00001C8.25 4.63754 8.50922 4.32694 8.86584 4.2621L19.8658 2.2621C20.0846 2.22232 20.3098 2.28169 20.4806 2.42419ZM17 14.75C16.3096 14.75 15.75 15.3096 15.75 16V17C15.75 17.6904 16.3096 18.25 17 18.25H18C18.6904 18.25 19.25 17.6904 19.25 17V14.75H17ZM4.75 18C4.75 17.3096 5.30964 16.75 6 16.75H8.25V19C8.25 19.6904 7.69036 20.25 7 20.25H6C5.30964 20.25 4.75 19.6904 4.75 19V18Z" fill="white"/>
</svg>
