<svg width="24" height="24" viewBox="0 0 24 24" fill="none" xmlns="http://www.w3.org/2000/svg">
<path fill-rule="evenodd" clip-rule="evenodd" d="M8.65039 8.07956C8.65039 7.10239 9.02553 6.41814 9.5575 5.96677C10.1058 5.50156 10.8635 5.25 11.6504 5.25C12.4372 5.25 13.195 5.50157 13.7433 5.96678C14.2753 6.41815 14.6504 7.1024 14.6504 8.07956C14.6504 8.79096 14.4772 9.24144 14.2437 9.59178C14.0086 9.9444 13.7011 10.2204 13.2999 10.5804L13.1941 10.6754C12.7627 11.0637 12.2556 11.5375 11.8713 12.2164C11.4797 12.9083 11.2413 13.7632 11.2413 14.8976C11.2413 15.3119 11.5771 15.6476 11.9913 15.6476C12.4055 15.6476 12.7413 15.3119 12.7413 14.8976C12.7413 13.9866 12.9291 13.3927 13.1767 12.9553C13.4316 12.505 13.7768 12.1691 14.1976 11.7904C14.2363 11.7555 14.2761 11.72 14.3167 11.6837C14.6945 11.3462 15.1452 10.9437 15.4918 10.4238C15.8974 9.81539 16.1504 9.07271 16.1504 8.07956C16.1504 6.67036 15.588 5.56483 14.7138 4.82302C13.8558 4.09504 12.7385 3.75 11.6504 3.75C10.5622 3.75 9.44501 4.09502 8.58703 4.823C7.71275 5.56482 7.15039 6.67035 7.15039 8.07956C7.15039 8.49377 7.48618 8.82956 7.90039 8.82956C8.3146 8.82956 8.65039 8.49377 8.65039 8.07956ZM12.5675 19.5005C12.8446 19.1926 12.8196 18.7184 12.5117 18.4413C12.2038 18.1642 11.7296 18.1892 11.4525 18.4971L11.4425 18.5082C11.1654 18.8161 11.1904 19.2903 11.4983 19.5674C11.8062 19.8445 12.2804 19.8195 12.5575 19.5116L12.5675 19.5005Z" fill="white"/>
</svg>
