<svg width="57" height="57" viewBox="0 0 57 57" fill="none" xmlns="http://www.w3.org/2000/svg">
<g clip-path="url(#clip0_68_243)">
<path fill-rule="evenodd" clip-rule="evenodd" d="M38.2566 52.3125L41.9303 28.3405C41.9303 28.3405 40.3525 25.5956 41.4926 22.3735C42.8824 18.4459 47.4201 16.3485 51.1284 17.5513C54.8365 18.7544 57.813 22.4947 56.4183 27.215C55.5499 30.1535 53.3738 31.3865 53.3738 31.3865L44.5116 54.0173L41.9727 53.3669L40.9176 53.0557L38.2566 52.3125ZM41.2205 50.3364L42.7578 50.7185L49.8793 32.912C49.8793 32.912 48.0457 32.9482 46.7051 32.5523C45.3643 32.1565 44.1877 31.2318 44.1877 31.2318L41.2205 50.3364ZM43.7938 24.3855C43.7938 24.3855 43.3232 28.9035 47.5516 29.9326C51.7803 30.9617 53.6205 26.9844 53.6205 26.9844C53.6205 26.9844 50.4562 27.9484 48.0736 27.3182C45.691 26.6883 43.7938 24.3855 43.7938 24.3855ZM44.2778 23.0612C44.2778 23.0612 46.3352 25.14 48.7791 25.8044C51.2232 26.469 54.0205 25.7099 54.0205 25.7099C54.0205 25.7099 54.301 21.0286 50.012 20.0787C45.7228 19.1289 44.2778 23.0612 44.2778 23.0612Z" fill="#CC4C94"/>
<path d="M53.6856 0.190263C53.6856 0.233619 53.6381 0.23756 53.4442 0.206029C53.2425 0.174498 53.191 0.174498 53.1554 0.221795C53.1238 0.26515 53.0723 0.273033 52.9536 0.253326C52.8429 0.233619 52.7835 0.23756 52.7558 0.276974C52.7242 0.312447 52.6569 0.32033 52.5264 0.308506C52.38 0.29274 52.3404 0.296681 52.3404 0.343978C52.3404 0.395217 52.3048 0.395217 52.1189 0.363685C51.9566 0.336096 51.8736 0.340037 51.8063 0.37551C51.7509 0.407041 51.6599 0.414924 51.5729 0.399158C51.47 0.379451 51.4265 0.387334 51.4028 0.434631C51.3711 0.485869 51.3355 0.48981 51.197 0.458279C51.0586 0.430689 51.0269 0.434631 51.0071 0.481928C50.9873 0.529225 50.9438 0.537107 50.7935 0.5174C50.6313 0.493752 50.5996 0.501635 50.5996 0.552873C50.5996 0.596229 50.5759 0.611994 50.5324 0.596229C50.4928 0.584404 50.3781 0.564697 50.2792 0.552873C50.1367 0.533166 50.0853 0.537107 50.0616 0.584404C50.0339 0.631701 49.9904 0.639584 49.8558 0.611994C49.7213 0.588346 49.6778 0.596229 49.662 0.635643C49.6462 0.678998 49.5947 0.686881 49.4483 0.667174C49.2822 0.643525 49.2545 0.651408 49.2545 0.706588C49.2545 0.753885 49.2307 0.76965 49.1872 0.753885C48.9419 0.686881 48.8588 0.686881 48.8588 0.749943C48.8588 0.805123 48.8272 0.809065 48.6729 0.789358C48.5661 0.773592 48.4513 0.753885 48.4118 0.742061C48.3722 0.734178 48.3326 0.749943 48.3208 0.785416C48.305 0.832713 48.2575 0.840596 48.1032 0.820889C47.9449 0.801182 47.9093 0.809065 47.9093 0.860303C47.9093 0.9076 47.8816 0.911541 47.7629 0.883951C47.5533 0.836654 47.5137 0.840596 47.5137 0.9076C47.5137 0.950955 47.4741 0.958838 47.3159 0.939131C47.1576 0.919424 47.1181 0.927307 47.1181 0.974604C47.1181 1.0219 47.0745 1.02584 46.8569 0.990369C46.6512 0.962779 46.5919 0.962779 46.5642 1.00613C46.5404 1.04161 46.485 1.04949 46.3743 1.02978C46.2516 1.01008 46.2041 1.0219 46.1764 1.06526C46.1488 1.11649 46.1131 1.12044 45.9747 1.0889C45.8362 1.06131 45.8046 1.06526 45.7848 1.11255C45.765 1.15985 45.7215 1.16773 45.5711 1.14803C45.4089 1.12438 45.3773 1.13226 45.3773 1.1835C45.3773 1.22685 45.3535 1.24262 45.31 1.22685C45.2704 1.21503 45.1557 1.19532 45.0568 1.1835C44.9144 1.16379 44.8629 1.16773 44.8392 1.21503C44.8115 1.26233 44.768 1.27021 44.6335 1.24262C44.499 1.21897 44.4554 1.22685 44.4396 1.26627C44.4238 1.30962 44.3724 1.31751 44.226 1.2978C44.0598 1.27415 44.0321 1.28203 44.0321 1.33721C44.0321 1.38451 44.0084 1.40028 43.9649 1.38451C43.7196 1.31751 43.6365 1.31751 43.6365 1.38057C43.6365 1.43575 43.6048 1.43969 43.4505 1.41998C43.3437 1.40422 43.229 1.38451 43.1894 1.37269C43.1499 1.3648 43.1103 1.38057 43.0984 1.41604C43.0826 1.46334 43.0351 1.47122 42.8808 1.45151C42.7226 1.43181 42.687 1.43969 42.687 1.48699C42.687 1.53823 42.6553 1.54217 42.5208 1.51458C42.2913 1.47122 42.2913 1.47122 42.2913 1.53823C42.2913 1.58158 42.2518 1.58946 42.0935 1.56976C41.9511 1.55399 41.8957 1.56187 41.8957 1.59735C41.8957 1.63282 41.8284 1.63676 41.6188 1.61705C41.4091 1.59735 41.3418 1.60129 41.3418 1.63676C41.3418 1.67223 41.2904 1.68012 41.144 1.66041C40.9778 1.63676 40.9462 1.64464 40.9462 1.69588C40.9462 1.75894 40.8631 1.75894 40.6218 1.69194C40.5743 1.67617 40.5505 1.69194 40.5505 1.73924C40.5505 1.79442 40.5228 1.8023 40.3527 1.77865C40.1866 1.755 40.1549 1.76289 40.1549 1.81807C40.1549 1.85354 40.1312 1.87324 40.1035 1.86142C40.0718 1.8496 39.9492 1.82989 39.8265 1.81412C39.6327 1.79048 39.601 1.79442 39.601 1.8496C39.601 1.89689 39.5773 1.90872 39.5021 1.89295C39.4467 1.88113 39.3597 1.86536 39.3043 1.85354C39.2331 1.83777 39.2054 1.8496 39.2054 1.89295C39.2054 1.94419 39.1698 1.95207 39.0076 1.92842C38.8375 1.90478 38.8098 1.91266 38.8098 1.96784C38.8098 2.01514 38.786 2.0309 38.7425 2.01514C38.4972 1.94813 38.4141 1.94813 38.4141 2.01119C38.4141 2.06243 38.3825 2.07032 38.2163 2.04667C38.0581 2.02696 38.0185 2.0309 38.0185 2.0782C38.0185 2.12549 37.9829 2.12944 37.8405 2.10973C37.702 2.09002 37.6506 2.09396 37.6268 2.14126C37.6031 2.18462 37.5516 2.19644 37.433 2.18067C37.2984 2.16097 37.2707 2.16885 37.2549 2.23191C37.2391 2.28315 37.2154 2.29892 37.1639 2.27921C37.1244 2.26344 37.0769 2.27921 37.0452 2.32257C37.0175 2.36198 36.9621 2.38563 36.9226 2.37775C36.8712 2.36986 36.8395 2.39745 36.8118 2.48416C36.7802 2.57087 36.7485 2.59846 36.6852 2.59452C36.6338 2.58664 36.5942 2.61423 36.5823 2.66153C36.5705 2.70882 36.527 2.74035 36.4795 2.74035C36.4201 2.74035 36.3845 2.78765 36.3291 2.94137C36.2737 3.09114 36.2421 3.1345 36.1907 3.11873C36.1353 3.10691 36.1076 3.14632 36.0601 3.30398C36.0285 3.41828 34.5765 9.66147 32.8357 17.1817C31.0949 24.7019 29.6588 30.8662 29.6508 30.882C29.6113 30.9451 29.4689 30.8741 29.4926 30.8071C29.5084 30.7559 29.4728 30.7283 29.3343 30.6928C29.1998 30.6574 29.1563 30.6258 29.1642 30.5785C29.1721 30.5312 29.1326 30.5036 29.0257 30.476C28.9229 30.4524 28.8635 30.409 28.8398 30.3499C28.8161 30.2908 28.7567 30.2474 28.6538 30.2238C28.551 30.2001 28.5075 30.1686 28.5154 30.1253C28.5233 30.0819 28.456 30.0464 28.2661 29.9913C28.0881 29.94 28.009 29.8967 28.009 29.8533C28.009 29.8099 27.9338 29.7705 27.7518 29.7193C27.5579 29.6681 27.4946 29.6365 27.5026 29.5892C27.5105 29.5419 27.4313 29.5025 27.1663 29.4316C26.9091 29.3606 26.8221 29.3212 26.83 29.2739C26.8379 29.2345 26.7944 29.203 26.7034 29.1793C26.0941 29.0256 25.9517 28.9783 25.9517 28.9271C25.9517 28.8601 25.7736 28.8088 24.6065 28.5408C23.3128 28.2413 23.1941 28.2216 23.1269 28.2767C23.0873 28.3122 22.9726 28.3004 22.6481 28.2373C22.3079 28.1743 22.2129 28.1664 22.1892 28.2058C22.1655 28.2492 22.0982 28.2492 21.8529 28.2058C21.6867 28.1782 21.5245 28.1467 21.4929 28.1349C21.4652 28.123 21.4415 28.1427 21.4415 28.1782C21.4415 28.2531 21.4415 28.2531 21.1447 28.1979C20.9509 28.1624 20.9034 28.1664 20.8678 28.2137C20.8322 28.261 20.7887 28.2649 20.6185 28.2334C20.4603 28.2019 20.3851 28.2019 20.3139 28.2413C20.2585 28.2728 20.1675 28.2807 20.0805 28.2649C19.9776 28.2452 19.9341 28.2531 19.9104 28.3004C19.8787 28.3516 19.8431 28.3556 19.7086 28.328C19.5662 28.2964 19.5424 28.3004 19.5226 28.3595C19.5029 28.4147 19.4752 28.4226 19.3327 28.395C19.2061 28.3753 19.1587 28.3792 19.1349 28.4226C19.1112 28.462 19.0558 28.4699 18.9292 28.458C18.7828 28.4383 18.7511 28.4462 18.7511 28.4975C18.7511 28.5487 18.7274 28.5566 18.6325 28.5369C18.5375 28.5172 18.5138 28.5251 18.5138 28.5802C18.5138 28.6354 18.4861 28.6433 18.3357 28.6236C18.1933 28.6039 18.1498 28.6118 18.13 28.6591C18.1142 28.6985 18.0786 28.7142 18.0153 28.6985C17.952 28.6827 17.9243 28.6945 17.9124 28.7418C17.9005 28.797 17.8649 28.8088 17.7344 28.8009C17.6473 28.7931 17.5603 28.8049 17.5445 28.8285C17.5326 28.8522 17.4772 28.8719 17.4218 28.8719C17.3625 28.8719 17.3269 28.8955 17.3269 28.935C17.3269 28.9823 17.3031 28.9941 17.2319 28.9744C17.1567 28.9547 17.1291 28.9704 17.1093 29.0256C17.0934 29.0768 17.0618 29.0926 16.9906 29.0768C16.9154 29.065 16.8917 29.0768 16.8917 29.1281C16.8917 29.1793 16.8679 29.1911 16.7928 29.1793C16.7255 29.1636 16.6899 29.1793 16.6741 29.2266C16.6582 29.2739 16.6226 29.2897 16.5554 29.2739C16.4842 29.2621 16.4565 29.2739 16.4565 29.3212C16.4565 29.3606 16.4209 29.3843 16.3576 29.3843C16.2943 29.3843 16.2587 29.4079 16.2587 29.4473C16.2587 29.4946 16.2349 29.5065 16.1637 29.4868C16.0885 29.467 16.0608 29.4828 16.0411 29.538C16.0252 29.5892 15.9936 29.605 15.9422 29.5932C15.8947 29.5813 15.8551 29.5971 15.8393 29.6365C15.8274 29.672 15.772 29.6996 15.7206 29.6996C15.6613 29.6996 15.6256 29.7232 15.6256 29.7627C15.6256 29.8099 15.598 29.8218 15.5307 29.8099C15.4595 29.7942 15.4278 29.8099 15.416 29.8651C15.4041 29.9045 15.3606 29.9361 15.3091 29.9361C15.2498 29.9361 15.2102 29.9715 15.1786 30.0543C15.143 30.145 15.1153 30.1647 15.048 30.1489C14.9847 30.1331 14.957 30.1489 14.9412 30.208C14.9293 30.2632 14.8977 30.279 14.8423 30.2632C14.779 30.2474 14.7553 30.2711 14.7196 30.3815C14.6801 30.4918 14.6563 30.5155 14.593 30.4997C14.5337 30.4839 14.506 30.4997 14.4902 30.5628C14.4744 30.6219 14.4427 30.6455 14.3873 30.6376C14.324 30.6298 14.2963 30.6574 14.2647 30.7559C14.233 30.8662 14.2132 30.882 14.1381 30.8662C14.0589 30.8465 14.0431 30.8623 14.0194 30.9845C13.9956 31.1027 13.9798 31.1224 13.9046 31.1106C13.8295 31.0948 13.8057 31.1146 13.7701 31.2407C13.7345 31.355 13.7108 31.3826 13.6514 31.3668C13.5921 31.351 13.5644 31.3786 13.5288 31.4929C13.4932 31.6033 13.4655 31.6348 13.4061 31.6191C13.3468 31.6033 13.3191 31.6388 13.2677 31.8122C13.2123 31.9817 13.1846 32.0211 13.1173 32.0132C13.0501 32.0053 13.0263 32.0447 12.9828 32.2103C12.9353 32.3797 12.9116 32.4152 12.8443 32.4073C12.7771 32.3995 12.7494 32.4428 12.6861 32.6635C12.6267 32.8724 12.5911 32.9315 12.5239 32.9394C12.4566 32.9473 12.425 33.0143 12.3458 33.2981C12.2667 33.5858 12.239 33.6449 12.1836 33.6292C12.1006 33.6095 12.0412 33.8026 11.7682 35.0087C11.5704 35.8915 11.5664 35.927 11.6495 35.927C11.7207 35.927 11.7207 35.994 11.6495 36.3212C11.5744 36.6562 11.5783 36.7153 11.6535 36.7153C11.7207 36.7153 11.7207 36.8217 11.6456 37.1725C11.6258 37.275 11.6337 37.3026 11.701 37.3223C11.7682 37.3459 11.7722 37.3656 11.7445 37.5351C11.701 37.7479 11.7207 37.8189 11.8078 37.8189C11.8513 37.8189 11.8671 37.8425 11.8513 37.8859C11.8394 37.9253 11.8197 38.0199 11.8078 38.1027C11.784 38.2209 11.792 38.2485 11.8592 38.2682C11.9265 38.2919 11.9344 38.3194 11.9186 38.4495C11.8988 38.5796 11.9067 38.6072 11.966 38.6072C12.0214 38.6072 12.0293 38.6348 12.0175 38.7609C12.0056 38.891 12.0175 38.9225 12.0768 38.9383C12.1401 38.954 12.152 38.9855 12.1362 39.1038C12.1203 39.222 12.1322 39.2536 12.1955 39.2693C12.2588 39.2851 12.2667 39.3127 12.2509 39.4388C12.2351 39.5728 12.243 39.5925 12.3063 39.5925C12.3617 39.5925 12.3815 39.6201 12.3815 39.6911C12.3815 39.7541 12.4052 39.7896 12.4408 39.7896C12.4843 39.7896 12.5001 39.833 12.5001 39.9433C12.5001 40.0616 12.516 40.101 12.5753 40.1167C12.6307 40.1286 12.6465 40.1601 12.6307 40.2192C12.6149 40.2862 12.6267 40.302 12.698 40.302C12.7771 40.302 12.785 40.3177 12.7692 40.4596C12.7573 40.5897 12.7692 40.6173 12.8246 40.6173C12.872 40.6173 12.8958 40.6488 12.8958 40.7119C12.8958 40.7749 12.9235 40.8144 12.9789 40.8262C13.0382 40.842 13.058 40.8695 13.0382 40.9129C13.0224 40.9602 13.0382 40.9878 13.0936 40.9996C13.1371 41.0114 13.1727 41.0548 13.1727 41.0981C13.1727 41.1454 13.2083 41.1849 13.2558 41.1967C13.3112 41.2124 13.331 41.244 13.3191 41.2913C13.3072 41.3386 13.327 41.3662 13.3903 41.3819C13.4576 41.3977 13.4774 41.4253 13.4615 41.4805C13.4497 41.5278 13.4694 41.5593 13.5248 41.5751C13.5763 41.5869 13.6079 41.6263 13.6079 41.6775C13.6079 41.7367 13.6317 41.7603 13.691 41.7603C13.7543 41.7603 13.7701 41.78 13.7543 41.8391C13.7385 41.8982 13.7583 41.9258 13.8295 41.9416C13.9007 41.9613 13.9205 41.985 13.9046 42.0362C13.8888 42.0835 13.9086 42.1111 13.964 42.1268C14.0115 42.1387 14.0431 42.1781 14.0431 42.2293C14.0431 42.2845 14.0669 42.3121 14.1222 42.3121C14.1737 42.3121 14.2014 42.3397 14.2014 42.387C14.2014 42.4303 14.237 42.4776 14.2805 42.4895C14.324 42.5013 14.3596 42.5446 14.3596 42.5841C14.3596 42.6314 14.4111 42.6708 14.5179 42.7023C14.6484 42.7417 14.6761 42.7654 14.6563 42.8245C14.6405 42.8797 14.6563 42.8994 14.7236 42.9112C14.7829 42.9191 14.8146 42.9506 14.8146 42.9979C14.8146 43.0531 14.8581 43.0846 14.9729 43.1201C15.0836 43.1516 15.1271 43.1831 15.1192 43.2304C15.1113 43.2738 15.143 43.3053 15.2102 43.3211C15.2814 43.3369 15.3052 43.3645 15.2894 43.4117C15.2735 43.463 15.3091 43.4906 15.4437 43.526C15.5861 43.5615 15.6138 43.5852 15.598 43.6443C15.5821 43.7034 15.6138 43.7271 15.7522 43.7547C15.8789 43.7822 15.9224 43.8098 15.9184 43.8611C15.9145 43.9123 15.958 43.9438 16.0846 43.9754C16.2072 44.0108 16.2587 44.0424 16.2587 44.0936C16.2587 44.137 16.3101 44.1764 16.4169 44.2079C16.5158 44.2394 16.5752 44.2789 16.5752 44.3183C16.5752 44.3616 16.6543 44.405 16.8323 44.4562C17.0222 44.5114 17.0895 44.5469 17.0895 44.5981C17.0895 44.6494 17.1567 44.6848 17.3427 44.7321C17.5207 44.7834 17.5919 44.8188 17.588 44.8622C17.584 44.9055 17.6315 44.9371 17.7225 44.9607C18.1735 45.075 18.2724 45.1144 18.2527 45.1696C18.2289 45.2209 18.4149 45.2957 18.7709 45.3667C19.032 45.4219 19.1507 45.4731 19.1349 45.5243C19.1072 45.5835 19.2773 45.6308 20.5948 45.9343C21.8885 46.2259 21.9202 46.2338 21.9597 46.1668C21.9874 46.1195 22.2604 46.155 22.8143 46.2811C22.8816 46.2969 22.9053 46.285 22.9053 46.2338C22.9053 46.1944 22.9251 46.1747 22.9567 46.1865C22.9844 46.1983 23.1466 46.2299 23.3168 46.2574C23.57 46.2969 23.6293 46.2969 23.657 46.2535C23.6887 46.2062 23.8588 46.2141 24.1238 46.2811C24.1871 46.2969 24.2109 46.285 24.2109 46.2338C24.2109 46.1826 24.2346 46.1707 24.3098 46.1904C24.5788 46.2574 24.7529 46.2614 24.7766 46.2023C24.7964 46.155 24.8281 46.151 24.9665 46.1786C25.105 46.2101 25.1406 46.2062 25.1683 46.1589C25.196 46.1116 25.2435 46.1037 25.378 46.1234C25.5165 46.1392 25.56 46.1313 25.5798 46.084C25.5916 46.0486 25.6233 46.0288 25.647 46.0367C25.6747 46.0446 25.7539 46.0604 25.8251 46.0722C25.924 46.088 25.9517 46.0801 25.9517 46.0288C25.9517 45.9776 25.9833 45.9697 26.1495 45.9894C26.3117 46.0091 26.3473 46.0013 26.3473 45.95C26.3473 45.9067 26.375 45.8948 26.4502 45.9106C26.5174 45.9224 26.5609 45.9106 26.5728 45.8712C26.5926 45.8239 26.6361 45.816 26.7706 45.8357C26.9052 45.8515 26.9408 45.8475 26.9408 45.8002C26.9408 45.7608 26.9803 45.7411 27.0594 45.7411C27.1346 45.7411 27.1781 45.7214 27.1781 45.6859C27.1781 45.6426 27.2177 45.6347 27.3403 45.6505C27.463 45.6702 27.5144 45.6584 27.5382 45.615C27.5579 45.5756 27.6094 45.5598 27.6727 45.5756C27.7478 45.5874 27.7716 45.5756 27.7716 45.5243C27.7716 45.4731 27.7953 45.4613 27.8665 45.4731C27.9378 45.4889 27.9694 45.4731 27.9813 45.4179C27.9971 45.3588 28.0248 45.3509 28.1039 45.3706C28.183 45.3903 28.2068 45.3785 28.2068 45.3312C28.2068 45.2918 28.2424 45.2682 28.3057 45.2682C28.369 45.2682 28.4046 45.2445 28.4046 45.2051C28.4046 45.1578 28.4283 45.146 28.5035 45.1657C28.5747 45.1854 28.6103 45.1736 28.6262 45.1302C28.642 45.0987 28.6934 45.0711 28.7448 45.0711C28.8042 45.0711 28.8398 45.0474 28.8398 45.008C28.8398 44.9607 28.8675 44.9489 28.9347 44.9607C29.006 44.9765 29.0376 44.9607 29.0534 44.9055C29.0653 44.8504 29.093 44.8346 29.1484 44.8543C29.2077 44.8701 29.2354 44.8543 29.2513 44.8031C29.271 44.7479 29.3027 44.7321 29.3739 44.7479C29.4451 44.7597 29.4728 44.7479 29.4728 44.7006C29.4728 44.6612 29.5084 44.6375 29.5717 44.6375C29.635 44.6375 29.6706 44.6139 29.6706 44.5784C29.6706 44.5429 29.7062 44.5193 29.7656 44.5193C29.8328 44.5193 29.8724 44.4838 29.908 44.3971C29.9476 44.3064 29.9792 44.2828 30.0386 44.2986C30.09 44.3104 30.1216 44.2946 30.1335 44.2394C30.1493 44.1803 30.177 44.1646 30.2443 44.1803C30.3155 44.2 30.3392 44.1803 30.3709 44.0739C30.3986 43.9793 30.4263 43.9517 30.4935 43.9557C30.545 43.9635 30.5845 43.936 30.6004 43.8847C30.6201 43.8295 30.6518 43.8098 30.7032 43.8217C30.7586 43.8374 30.7863 43.8098 30.8259 43.7074C30.8615 43.6049 30.8931 43.5733 30.9525 43.5812C31.0118 43.5891 31.0395 43.5615 31.0672 43.463C31.0949 43.3684 31.1305 43.3369 31.1938 43.3369C31.2571 43.3369 31.2927 43.3053 31.3204 43.2068C31.3481 43.1122 31.3758 43.0846 31.4352 43.0925C31.4985 43.1004 31.5261 43.0728 31.5538 42.9743C31.5815 42.8875 31.6211 42.8402 31.6765 42.8324C31.7398 42.8245 31.7794 42.7693 31.8268 42.6235C31.8822 42.4619 31.9099 42.4264 31.9693 42.4422C32.0286 42.4579 32.0563 42.4225 32.1117 42.2451C32.1671 42.0756 32.1948 42.0362 32.2502 42.048C32.3095 42.0638 32.3372 42.0165 32.4045 41.78C32.4757 41.5435 32.4994 41.4962 32.5627 41.512C32.6339 41.5317 32.6695 41.441 32.7882 40.972C32.812 40.8774 32.8476 40.8301 32.903 40.8222C32.9663 40.8144 32.9979 40.7592 33.0454 40.5858C33.1126 40.3572 38.968 15.1006 38.968 15.0533C38.968 15.0415 39.0036 15.0376 39.0511 15.0494C39.0986 15.0612 39.1381 15.0494 39.154 15.0139C39.1698 14.9705 39.2173 14.9627 39.3676 14.9824C39.5338 15.006 39.5615 14.9981 39.5615 14.943C39.5615 14.8957 39.5852 14.8799 39.6327 14.8957C39.874 14.9627 39.9571 14.9627 39.9571 14.8996C39.9571 14.8484 39.9887 14.8405 40.1549 14.8641C40.3132 14.8838 40.3527 14.8799 40.3527 14.8326C40.3527 14.7853 40.3962 14.7814 40.6138 14.8168C40.8196 14.8484 40.8789 14.8444 40.9066 14.8011C40.9304 14.7656 40.9897 14.7577 41.1203 14.7735C41.2627 14.7932 41.3022 14.7892 41.3022 14.7419C41.3022 14.6986 41.3418 14.6907 41.5001 14.7104C41.6464 14.7262 41.6979 14.7183 41.6979 14.6828C41.6979 14.6474 41.7493 14.6395 41.8957 14.6592C42.0619 14.6828 42.0935 14.6749 42.0935 14.6237C42.0935 14.5803 42.1172 14.5646 42.1647 14.5803C42.2003 14.5882 42.3269 14.6119 42.4417 14.6237C42.6197 14.6474 42.6474 14.6434 42.6474 14.5843C42.6474 14.5212 42.7265 14.5212 42.9758 14.5882C43.0193 14.604 43.043 14.5882 43.043 14.5409C43.043 14.4858 43.0707 14.4779 43.2408 14.5015C43.4031 14.5252 43.4387 14.5173 43.4387 14.466C43.4387 14.4227 43.4664 14.4109 43.5376 14.4266C43.593 14.4385 43.68 14.4542 43.7354 14.466C43.8106 14.4818 43.8343 14.47 43.8343 14.4227C43.8343 14.3675 43.8659 14.3636 44.0598 14.3872C44.1825 14.403 44.3051 14.4227 44.3368 14.4345C44.3644 14.4463 44.3882 14.4266 44.3882 14.3912C44.3882 14.336 44.4198 14.3281 44.582 14.3517C44.7324 14.3715 44.7759 14.3636 44.7957 14.3163C44.8155 14.269 44.8471 14.265 44.9698 14.2926C45.1715 14.3399 45.1795 14.336 45.1795 14.265C45.1795 14.2138 45.2111 14.2099 45.3614 14.2335C45.492 14.2532 45.5513 14.2453 45.5751 14.2099C45.6028 14.1665 45.6621 14.1665 45.8679 14.1941C46.0855 14.2296 46.129 14.2256 46.129 14.1783C46.129 14.131 46.1685 14.1231 46.3268 14.1429C46.485 14.1626 46.5246 14.1547 46.5246 14.1113C46.5246 14.0443 46.5246 14.0443 46.7541 14.0877C46.8886 14.1153 46.9202 14.1113 46.9202 14.0601C46.9202 14.0128 46.9558 14.0088 47.1141 14.0286C47.2605 14.0483 47.3119 14.0404 47.3277 14.001C47.3436 13.9576 47.391 13.9537 47.5414 13.9773C47.8223 14.0246 47.8698 14.0207 47.8698 13.9497C47.8698 13.8906 47.9568 13.8906 48.1981 13.9576C48.2417 13.9734 48.2654 13.9576 48.2654 13.9142C48.2654 13.8591 48.2931 13.8512 48.4632 13.8748C48.6294 13.8985 48.661 13.8906 48.661 13.8394C48.661 13.7921 48.6887 13.7802 48.7599 13.796C48.8153 13.8078 48.9024 13.8236 48.9577 13.8354C49.029 13.8512 49.0567 13.8394 49.0567 13.796C49.0567 13.7408 49.0923 13.7369 49.2663 13.7566C49.3771 13.7684 49.5037 13.7881 49.5433 13.7999C49.5868 13.8157 49.6105 13.7999 49.6105 13.7566C49.6105 13.7054 49.6422 13.6975 49.8044 13.7211C49.9547 13.7408 49.9983 13.7329 50.018 13.6856C50.0378 13.6383 50.0695 13.6344 50.1921 13.662C50.3939 13.7093 50.4018 13.7054 50.4018 13.6344C50.4018 13.5832 50.4335 13.5792 50.5838 13.6029C50.7144 13.6226 50.7737 13.6147 50.7974 13.5792C50.8251 13.5359 50.8845 13.5359 51.0902 13.5635C51.3078 13.5989 51.3513 13.595 51.3513 13.5477C51.3513 13.5004 51.3909 13.4925 51.5491 13.5122C51.7074 13.5319 51.747 13.524 51.747 13.4807C51.747 13.4137 51.747 13.4137 51.9764 13.457C52.1109 13.4846 52.1426 13.4807 52.1426 13.4295C52.1426 13.3822 52.1782 13.3782 52.3246 13.3979C52.4631 13.4137 52.5224 13.4058 52.5541 13.3664C52.5857 13.323 52.6371 13.3152 52.7677 13.3388C52.9022 13.3664 52.9339 13.3625 52.9339 13.3112C52.9339 13.2679 52.9734 13.256 53.1159 13.2757C53.2464 13.2876 53.3018 13.2797 53.3176 13.2403C53.3295 13.2087 53.3809 13.1851 53.4324 13.1851C53.4917 13.1851 53.5273 13.1614 53.5273 13.122C53.5273 13.0747 53.5511 13.0629 53.6223 13.0826C53.6974 13.1023 53.7251 13.0866 53.7449 13.0314C53.7607 12.9801 53.7924 12.9644 53.8636 12.9801C53.9348 12.992 53.9625 12.9801 53.9625 12.9328C53.9625 12.8934 53.9981 12.8698 54.0575 12.8698C54.1287 12.8698 54.1564 12.8382 54.188 12.7397C54.2157 12.6451 54.2434 12.6175 54.3028 12.6254C54.3661 12.6333 54.3938 12.5978 54.4412 12.448C54.4847 12.3101 54.5243 12.2549 54.5837 12.247C54.639 12.2391 54.6786 12.1879 54.7063 12.0894C54.738 11.983 56.7557 3.28821 56.91 2.59058C56.9258 2.52358 56.9139 2.50387 56.8506 2.50387C56.7755 2.50387 56.7715 2.4881 56.7913 2.3541C56.8071 2.27527 56.8269 2.17673 56.8388 2.13732C56.8506 2.08608 56.8309 2.05849 56.7715 2.04273C56.6963 2.02302 56.6884 1.99937 56.7082 1.8693C56.7319 1.7353 56.724 1.71559 56.6528 1.71559C56.5935 1.71559 56.5737 1.688 56.5737 1.61705C56.5737 1.54217 56.5539 1.51852 56.4906 1.51852C56.4273 1.51852 56.4154 1.50275 56.4352 1.44363C56.451 1.38845 56.4352 1.36086 56.3759 1.34115C56.3324 1.32933 56.2967 1.28203 56.2967 1.24262C56.2967 1.20715 56.2611 1.16379 56.2176 1.15197C56.1701 1.14014 56.1385 1.09679 56.1385 1.04949C56.1385 0.994311 56.1148 0.966721 56.0594 0.966721C56.0079 0.966721 55.9802 0.939131 55.9802 0.895776C55.9802 0.840596 55.9209 0.801182 55.7547 0.746002C55.6202 0.702647 55.5253 0.643525 55.5134 0.604111C55.5055 0.560756 55.4303 0.5174 55.3314 0.48981C54.916 0.383392 54.8131 0.343978 54.8131 0.296681C54.8131 0.217853 54.5599 0.162674 54.461 0.217853C54.3977 0.249385 54.3067 0.245443 54.0891 0.198146C53.733 0.127201 53.6856 0.12326 53.6856 0.190263Z" fill="#ECAC64"/>
<path d="M1.0987 50.2444C6.08258 48.0653 11.3359 48.1801 16.2356 50.4636C18.7992 51.6585 21.0754 53.4027 23.7385 54.3997C29.7385 56.6455 36.719 56.4165 42.13 52.7906" stroke="#CC4C94" stroke-width="2.19739" stroke-miterlimit="1.5" stroke-linecap="round" stroke-linejoin="round"/>
</g>
<defs>
<clipPath id="clip0_68_243">
<rect width="57" height="57" fill="white"/>
</clipPath>
</defs>
</svg>
