<svg width="584" height="756" viewBox="0 0 584 756" fill="none" xmlns="http://www.w3.org/2000/svg">
<path d="M219.533 184.529C213.947 184.529 209.274 183.047 205.512 180.084C201.864 177.12 199.357 172.902 197.989 167.43C196.735 161.959 196.792 155.632 198.16 148.451L208.248 96.471H230.476L220.388 148.451C219.59 151.871 219.476 154.891 220.046 157.513C220.73 160.021 221.984 161.959 223.808 163.327C225.631 164.581 227.911 165.208 230.647 165.208C233.497 165.208 236.29 164.41 239.025 162.814C241.875 161.218 244.326 158.995 246.378 156.145C248.43 153.182 249.741 150.047 250.311 146.741H254.756C253.502 153.809 251.051 160.249 247.404 166.063C243.87 171.762 239.652 176.265 234.751 179.571C229.963 182.876 224.891 184.529 219.533 184.529ZM264.673 96.471H286.902L270.145 181.964H247.917L264.673 96.471ZM318.433 184.529C312.505 184.529 307.148 183.503 302.36 181.451C297.686 179.4 294.153 176.664 291.759 173.244C289.479 169.71 288.738 165.835 289.536 161.617C290.334 157.285 292.5 153.809 296.033 151.187C299.681 148.451 304.013 146.798 309.028 146.228C314.158 145.544 319.288 145.943 324.417 147.425L322.194 151.7C320.143 151.13 318.148 151.073 316.21 151.529C314.272 151.871 312.619 152.669 311.251 153.923C309.883 155.062 309.028 156.43 308.686 158.026C308.458 159.736 308.857 161.275 309.883 162.643C310.909 163.897 312.505 164.923 314.671 165.721C316.837 166.405 319.288 166.747 322.023 166.747C325.899 166.747 329.262 165.949 332.112 164.353C334.961 162.643 336.614 160.42 337.07 157.684C337.64 155.176 336.785 153.182 334.505 151.7C332.34 150.104 328.977 148.679 324.417 147.425L322.536 146.912C316.951 145.316 312.334 143.378 308.686 141.099C305.039 138.705 302.303 135.741 300.479 132.207C298.769 128.674 298.37 124.57 299.282 119.896C300.194 114.881 302.36 110.435 305.78 106.559C309.313 102.57 313.702 99.4918 318.946 97.3259C324.189 95.0461 329.946 93.9062 336.215 93.9062C342.143 93.9062 347.728 95.3311 352.972 98.1809C358.33 101.031 362.205 105.02 364.599 110.15L347.671 121.777C346.076 118.699 343.967 116.248 341.345 114.425C338.723 112.601 335.816 111.689 332.625 111.689C329.547 111.689 326.868 112.43 324.588 113.912C322.308 115.28 320.941 117.103 320.485 119.383C320.143 120.865 320.485 122.176 321.51 123.316C322.536 124.456 323.961 125.482 325.785 126.394C327.723 127.192 330.402 128.104 333.822 129.129C334.277 129.243 334.733 129.357 335.189 129.471C340.661 130.953 345.221 132.948 348.868 135.456C352.516 137.85 355.195 140.928 356.905 144.689C358.729 148.451 359.185 152.669 358.273 157.342C357.361 162.586 354.967 167.316 351.091 171.534C347.329 175.638 342.599 178.83 336.899 181.109C331.2 183.389 325.044 184.529 318.433 184.529ZM400.95 184.529C391.147 184.529 384.364 181.964 380.602 176.835C376.955 171.705 376.1 163.84 378.038 153.239L387.955 102.285H410.183L400.266 153.239C399.582 156.886 399.867 159.679 401.121 161.617C402.489 163.441 404.712 164.353 407.789 164.353C409.613 164.353 411.323 164.182 412.919 163.84C414.515 163.498 416.168 162.871 417.877 161.959L413.945 181.964C412.235 182.762 410.126 183.389 407.618 183.845C405.11 184.301 402.888 184.529 400.95 184.529ZM375.131 96.471H430.701L426.427 117.673H370.856L375.131 96.471ZM375.644 93.0513C380.317 93.0513 384.022 91.9684 386.758 89.8025C389.608 87.5227 391.432 84.388 392.229 80.3983L393.426 74.2427H415.655L414.458 80.3983C413.66 84.274 411.551 87.5227 408.131 90.1445C404.826 92.7663 400.323 94.6472 394.623 95.7871C389.038 96.927 382.54 97.155 375.131 96.471L375.644 93.0513Z" fill="#ECAC64"/>
<path d="M47.1633 204.14H101.366C107.636 204.14 112.993 205.223 117.439 207.389C121.999 209.554 125.304 212.632 127.356 216.622C129.408 220.612 129.921 225.228 128.895 230.472C127.869 235.715 125.475 240.047 121.714 243.467C118.066 246.887 113.335 249.394 107.522 250.99C101.708 252.472 94.9256 253.213 87.1742 253.213L88.0292 248.767C90.651 248.767 93.1018 248.311 95.3816 247.4C97.7754 246.374 99.7132 245.006 101.195 243.296C102.791 241.472 103.76 239.42 104.102 237.14C104.558 234.86 104.387 232.866 103.589 231.156C102.905 229.332 101.594 227.964 99.6562 227.052C97.7184 226.026 95.3816 225.513 92.6458 225.513H62.5521L67.3398 220.897L50.5831 307.074L47.5053 302.457H80.5057C83.4695 302.457 86.2623 301.83 88.8841 300.576C91.5059 299.208 93.7287 297.442 95.5526 295.276C97.3764 292.996 98.5733 290.488 99.1433 287.752C99.9412 283.421 99.1433 279.944 96.7495 277.322C94.4697 274.7 90.9929 273.389 86.3193 273.389H46.3084L50.2411 253.213H90.081C97.8324 253.213 104.387 254.695 109.744 257.659C115.102 260.508 118.864 264.612 121.03 269.97C123.309 275.213 123.765 281.312 122.397 288.265C121.144 294.991 118.294 301.089 113.848 306.561C109.402 311.918 103.931 316.136 97.4334 319.214C90.9359 322.292 83.9825 323.831 76.573 323.831H23.9091L47.1633 204.14ZM171.964 326.395C163.528 326.395 156.119 324.401 149.735 320.411C143.466 316.421 138.906 310.95 136.056 303.996C133.321 297.043 132.808 289.405 134.517 281.084C136.227 272.649 139.818 265.011 145.29 258.172C150.761 251.218 157.43 245.747 165.295 241.757C173.16 237.767 181.311 235.772 189.746 235.772C198.979 235.772 206.503 238.109 212.316 242.783C218.244 247.457 222.063 253.897 223.773 262.104C225.482 270.312 224.855 279.488 221.892 289.633H144.435L147.683 272.877H203.767C203.995 269.457 203.425 266.379 202.057 263.643C200.803 260.793 198.808 258.571 196.073 256.975C193.337 255.379 189.974 254.581 185.984 254.581C181.425 254.581 177.036 255.721 172.819 258.001C168.715 260.281 165.238 263.472 162.388 267.576C159.539 271.566 157.601 276.068 156.575 281.084C155.663 286.1 155.834 290.602 157.088 294.592C158.456 298.582 160.735 301.716 163.927 303.996C167.119 306.276 171.052 307.473 175.725 307.587C179.829 307.815 183.819 307.245 187.694 305.877C191.57 304.395 194.99 302.343 197.954 299.721L210.436 311.52C205.306 316.079 199.321 319.727 192.482 322.463C185.757 325.084 178.917 326.395 171.964 326.395ZM267.225 326.224C259.017 326.68 252.064 324.913 246.364 320.924C240.665 316.934 236.675 311.406 234.395 304.338C232.115 297.157 231.773 289.348 233.369 280.913C234.965 272.706 238.328 265.182 243.457 258.343C248.701 251.389 255.027 245.918 262.437 241.928C269.846 237.824 277.655 235.772 285.862 235.772C293.386 235.772 299.598 237.653 304.5 241.415C309.515 245.177 312.878 250.477 314.588 257.317C316.298 264.042 316.298 271.908 314.588 280.913H306.551C307.577 276.239 307.292 272.022 305.697 268.26C304.101 264.384 301.479 261.363 297.831 259.198C294.183 257.032 289.852 255.949 284.836 255.949C280.049 255.949 275.603 257.089 271.499 259.369C267.396 261.534 263.919 264.555 261.069 268.431C258.219 272.193 256.338 276.41 255.426 281.084C254.629 285.758 254.8 289.975 255.939 293.737C257.193 297.499 259.416 300.462 262.608 302.628C265.8 304.68 269.675 305.706 274.235 305.706C278.795 305.706 283.012 304.623 286.888 302.457C290.878 300.291 294.183 297.328 296.805 293.566C299.427 289.804 301.251 285.587 302.277 280.913H306.551C304.842 289.918 302.106 297.784 298.344 304.509C294.582 311.235 290.023 316.478 284.665 320.24C279.308 324.002 273.494 325.996 267.225 326.224ZM314.93 238.337H337.158L320.401 323.831H298.173L314.93 238.337ZM373.55 326.395C363.747 326.395 356.964 323.831 353.203 318.701C349.555 313.571 348.7 305.706 350.638 295.105L360.555 244.151H382.783L372.866 295.105C372.182 298.753 372.467 301.545 373.721 303.483C375.089 305.307 377.312 306.219 380.39 306.219C382.214 306.219 383.923 306.048 385.519 305.706C387.115 305.364 388.768 304.737 390.478 303.825L386.545 323.831C384.835 324.629 382.726 325.255 380.219 325.711C377.711 326.167 375.488 326.395 373.55 326.395ZM347.731 238.337H403.302L399.027 259.54H343.457L347.731 238.337ZM348.244 234.917C352.918 234.917 356.623 233.835 359.358 231.669C362.208 229.389 364.032 226.254 364.83 222.264L366.027 216.109H388.255L387.058 222.264C386.26 226.14 384.151 229.389 380.732 232.011C377.426 234.633 372.923 236.513 367.224 237.653C361.638 238.793 355.141 239.021 347.731 238.337L348.244 234.917Z" fill="#FC9464"/>
<path d="M175.529 479.92C178.037 465.216 180.773 453.531 183.737 444.868C186.814 436.091 190.405 429.08 194.509 423.837C198.612 418.479 203.799 413.863 210.068 409.987L215.882 406.567C221.81 403.147 226.483 400.241 229.903 397.847C233.437 395.453 236.571 392.318 239.307 388.443C242.157 384.453 244.152 379.608 245.292 373.909H264.613C262.675 383.94 259.142 392.546 254.012 399.728C248.996 406.909 243.582 412.723 237.768 417.168C232.069 421.614 225.001 426.345 216.566 431.36C215.198 432.044 213.773 432.842 212.291 433.754C206.934 436.832 202.089 440.365 197.757 444.355C193.54 448.231 189.721 453.132 186.301 459.06C182.996 464.874 180.545 471.827 178.949 479.92H175.529ZM175.358 360.23H198.783L175.529 479.92H152.104L175.358 360.23ZM247.857 360.23H271.282L248.028 479.92H224.602L247.857 360.23ZM300.908 383.313C297.146 383.313 294.239 382.059 292.187 379.551C290.136 376.929 289.509 373.738 290.307 369.976C290.991 366.328 292.871 363.194 295.949 360.572C299.027 357.836 302.447 356.468 306.208 356.468C309.742 356.468 312.592 357.836 314.758 360.572C317.038 363.194 317.778 366.328 316.981 369.976C316.297 373.738 314.359 376.929 311.167 379.551C307.975 382.059 304.556 383.313 300.908 383.313ZM284.664 394.427H306.721L289.965 479.92H267.907L284.664 394.427ZM344.785 482.485C334.981 482.485 328.199 479.92 324.437 474.791C320.789 469.661 319.935 461.796 321.872 451.195L331.79 400.241H354.018L344.101 451.195C343.417 454.842 343.702 457.635 344.956 459.573C346.323 461.397 348.546 462.309 351.624 462.309C353.448 462.309 355.158 462.138 356.754 461.796C358.35 461.454 360.002 460.827 361.712 459.915L357.78 479.92C356.07 480.718 353.961 481.345 351.453 481.801C348.945 482.257 346.722 482.485 344.785 482.485ZM318.966 394.427H374.536L370.262 415.629H314.691L318.966 394.427ZM319.479 391.007C324.152 391.007 327.857 389.924 330.593 387.759C333.442 385.479 335.266 382.344 336.064 378.354L337.261 372.199H359.489L358.293 378.354C357.495 382.23 355.386 385.479 351.966 388.101C348.66 390.722 344.158 392.603 338.458 393.743C332.873 394.883 326.375 395.111 318.966 394.427L319.479 391.007Z" fill="#EC5C6C"/>
<path fill-rule="evenodd" clip-rule="evenodd" d="M411.229 499.648L440.939 305.785C440.939 305.785 428.179 283.587 437.399 257.529C448.638 225.766 485.335 208.805 515.324 218.532C545.312 228.262 569.384 258.509 558.104 296.684C551.082 320.447 533.483 330.418 533.483 330.418L461.814 513.435L441.282 508.176L432.749 505.659L411.229 499.648ZM435.198 483.668L447.631 486.758L505.223 342.755C505.223 342.755 490.394 343.048 479.553 339.847C468.71 336.646 459.194 329.167 459.194 329.167L435.198 483.668ZM456.009 273.801C456.009 273.801 452.203 310.338 486.399 318.661C520.597 326.983 535.478 294.818 535.478 294.818C535.478 294.818 509.888 302.614 490.62 297.518C471.352 292.424 456.009 273.801 456.009 273.801ZM459.923 263.091C459.923 263.091 476.561 279.903 496.326 285.276C516.091 290.65 538.713 284.511 538.713 284.511C538.713 284.511 540.981 246.653 506.296 238.971C471.609 231.29 459.923 263.091 459.923 263.091Z" fill="#CC4C94"/>
<path d="M249.675 23.129C249.675 23.2809 249.509 23.2947 248.828 23.1842C248.121 23.0737 247.94 23.0737 247.815 23.2394C247.704 23.3913 247.524 23.4189 247.107 23.3499C246.719 23.2809 246.51 23.2947 246.413 23.4328C246.302 23.557 246.066 23.5846 245.608 23.5432C245.095 23.488 244.956 23.5018 244.956 23.6675C244.956 23.847 244.831 23.847 244.178 23.7365C243.609 23.6399 243.318 23.6537 243.082 23.7779C242.887 23.8884 242.568 23.916 242.263 23.8608C241.902 23.7917 241.749 23.8194 241.666 23.985C241.555 24.1646 241.43 24.1784 240.944 24.0679C240.458 23.9713 240.347 23.985 240.278 24.1507C240.208 24.3164 240.056 24.3441 239.528 24.275C238.959 24.1922 238.848 24.2198 238.848 24.3993C238.848 24.5512 238.765 24.6064 238.612 24.5512C238.473 24.5097 238.071 24.4407 237.724 24.3993C237.224 24.3302 237.044 24.3441 236.96 24.5097C236.863 24.6754 236.71 24.703 236.239 24.6064C235.767 24.5235 235.614 24.5512 235.558 24.6892C235.503 24.8411 235.322 24.8687 234.809 24.7997C234.226 24.7169 234.129 24.7445 234.129 24.9378C234.129 25.1035 234.045 25.1587 233.893 25.1035C233.032 24.8687 232.741 24.8687 232.741 25.0897C232.741 25.283 232.63 25.2968 232.088 25.2277C231.713 25.1725 231.311 25.1035 231.172 25.062C231.033 25.0344 230.894 25.0897 230.853 25.2139C230.797 25.3796 230.631 25.4072 230.089 25.3382C229.534 25.2692 229.409 25.2968 229.409 25.4763C229.409 25.642 229.312 25.6558 228.896 25.5591C228.16 25.3934 228.021 25.4072 228.021 25.642C228.021 25.7939 227.882 25.8215 227.327 25.7524C226.772 25.6834 226.633 25.711 226.633 25.8767C226.633 26.0424 226.48 26.0562 225.717 25.9319C224.995 25.8353 224.787 25.8353 224.69 25.9872C224.606 26.1114 224.412 26.139 224.023 26.07C223.593 26.001 223.427 26.0424 223.329 26.1943C223.232 26.3738 223.107 26.3876 222.621 26.2771C222.136 26.1805 222.025 26.1943 221.955 26.36C221.886 26.5257 221.733 26.5533 221.206 26.4842C220.636 26.4014 220.525 26.429 220.525 26.6085C220.525 26.7604 220.442 26.8156 220.289 26.7604C220.151 26.7189 219.748 26.6499 219.401 26.6085C218.901 26.5395 218.721 26.5533 218.638 26.7189C218.54 26.8846 218.388 26.9123 217.916 26.8156C217.444 26.7328 217.291 26.7604 217.236 26.8985C217.18 27.0503 217 27.078 216.486 27.0089C215.903 26.9261 215.806 26.9537 215.806 27.147C215.806 27.3127 215.723 27.3679 215.57 27.3127C214.709 27.078 214.418 27.078 214.418 27.2989C214.418 27.4922 214.307 27.506 213.765 27.437C213.391 27.3817 212.988 27.3127 212.849 27.2713C212.71 27.2436 212.572 27.2989 212.53 27.4231C212.474 27.5888 212.308 27.6165 211.767 27.5474C211.211 27.4784 211.086 27.506 211.086 27.6717C211.086 27.8512 210.975 27.865 210.503 27.7683C209.698 27.6165 209.698 27.6165 209.698 27.8512C209.698 28.0031 209.56 28.0307 209.004 27.9616C208.505 27.9064 208.31 27.934 208.31 28.0583C208.31 28.1826 208.074 28.1964 207.339 28.1273C206.603 28.0583 206.367 28.0721 206.367 28.1964C206.367 28.3206 206.186 28.3483 205.673 28.2792C205.09 28.1964 204.979 28.224 204.979 28.4035C204.979 28.6244 204.687 28.6244 203.841 28.3897C203.674 28.3344 203.591 28.3897 203.591 28.5554C203.591 28.7487 203.494 28.7763 202.897 28.6934C202.314 28.6106 202.203 28.6382 202.203 28.8315C202.203 28.9558 202.119 29.0248 202.022 28.9834C201.911 28.942 201.481 28.8729 201.051 28.8177C200.37 28.7349 200.259 28.7487 200.259 28.942C200.259 29.1077 200.176 29.1491 199.912 29.0939C199.718 29.0524 199.413 28.9972 199.218 28.9558C198.968 28.9006 198.871 28.942 198.871 29.0939C198.871 29.2734 198.746 29.301 198.177 29.2181C197.58 29.1353 197.483 29.1629 197.483 29.3562C197.483 29.5219 197.4 29.5771 197.247 29.5219C196.387 29.2872 196.095 29.2872 196.095 29.5081C196.095 29.6876 195.984 29.7152 195.401 29.6324C194.846 29.5633 194.707 29.5771 194.707 29.7428C194.707 29.9085 194.582 29.9223 194.082 29.8533C193.597 29.7842 193.416 29.798 193.333 29.9637C193.249 30.1156 193.069 30.157 192.653 30.1018C192.181 30.0328 192.084 30.0604 192.028 30.2813C191.972 30.4608 191.889 30.516 191.709 30.447C191.57 30.3918 191.403 30.447 191.292 30.5989C191.195 30.737 191.001 30.8198 190.862 30.7922C190.682 30.7646 190.57 30.8612 190.473 31.165C190.362 31.4688 190.251 31.5654 190.029 31.5516C189.849 31.524 189.71 31.6207 189.668 31.7863C189.627 31.952 189.474 32.0625 189.307 32.0625C189.099 32.0625 188.974 32.2282 188.78 32.7667C188.586 33.2914 188.474 33.4433 188.294 33.388C188.1 33.3466 188.003 33.4847 187.836 34.037C187.725 34.4374 182.631 56.3086 176.523 82.6535C170.415 108.998 165.377 130.593 165.349 130.649C165.21 130.87 164.71 130.621 164.794 130.386C164.849 130.207 164.724 130.11 164.238 129.986C163.767 129.862 163.614 129.751 163.642 129.585C163.669 129.42 163.531 129.323 163.156 129.226C162.795 129.144 162.587 128.992 162.503 128.785C162.42 128.578 162.212 128.426 161.851 128.343C161.49 128.26 161.337 128.149 161.365 127.998C161.393 127.846 161.157 127.721 160.491 127.528C159.866 127.349 159.588 127.197 159.588 127.045C159.588 126.893 159.325 126.755 158.686 126.575C158.006 126.396 157.784 126.285 157.812 126.12C157.839 125.954 157.562 125.816 156.632 125.567C155.73 125.319 155.424 125.181 155.452 125.015C155.48 124.877 155.327 124.767 155.008 124.684C152.87 124.145 152.37 123.98 152.37 123.8C152.37 123.565 151.746 123.386 147.651 122.447C143.112 121.398 142.695 121.329 142.459 121.522C142.321 121.646 141.918 121.605 140.78 121.384C139.586 121.163 139.253 121.135 139.17 121.273C139.086 121.425 138.85 121.425 137.99 121.273C137.407 121.177 136.838 121.066 136.727 121.025C136.629 120.983 136.546 121.052 136.546 121.177C136.546 121.439 136.546 121.439 135.505 121.246C134.825 121.121 134.658 121.135 134.533 121.301C134.408 121.467 134.256 121.48 133.659 121.37C133.104 121.259 132.84 121.259 132.59 121.398C132.396 121.508 132.077 121.536 131.771 121.48C131.41 121.411 131.258 121.439 131.174 121.605C131.063 121.784 130.938 121.798 130.466 121.701C129.967 121.591 129.883 121.605 129.814 121.812C129.745 122.005 129.647 122.033 129.148 121.936C128.703 121.867 128.537 121.881 128.454 122.033C128.37 122.171 128.176 122.198 127.732 122.157C127.218 122.088 127.107 122.116 127.107 122.295C127.107 122.475 127.024 122.502 126.691 122.433C126.358 122.364 126.274 122.392 126.274 122.585C126.274 122.778 126.177 122.806 125.65 122.737C125.15 122.668 124.997 122.695 124.928 122.861C124.872 122.999 124.747 123.054 124.525 122.999C124.303 122.944 124.206 122.985 124.164 123.151C124.123 123.344 123.998 123.386 123.54 123.358C123.234 123.331 122.929 123.372 122.873 123.455C122.832 123.538 122.638 123.607 122.443 123.607C122.235 123.607 122.11 123.69 122.11 123.828C122.11 123.993 122.027 124.035 121.777 123.966C121.513 123.897 121.416 123.952 121.347 124.145C121.291 124.325 121.18 124.38 120.93 124.325C120.666 124.283 120.583 124.325 120.583 124.504C120.583 124.684 120.5 124.725 120.236 124.684C120 124.629 119.875 124.684 119.82 124.849C119.764 125.015 119.639 125.07 119.403 125.015C119.153 124.974 119.056 125.015 119.056 125.181C119.056 125.319 118.931 125.402 118.709 125.402C118.487 125.402 118.362 125.485 118.362 125.623C118.362 125.788 118.279 125.83 118.029 125.761C117.765 125.692 117.668 125.747 117.599 125.94C117.543 126.12 117.432 126.175 117.252 126.134C117.085 126.092 116.946 126.147 116.891 126.285C116.849 126.41 116.655 126.506 116.474 126.506C116.266 126.506 116.141 126.589 116.141 126.727C116.141 126.893 116.044 126.934 115.808 126.893C115.558 126.838 115.447 126.893 115.406 127.086C115.364 127.224 115.211 127.335 115.031 127.335C114.823 127.335 114.684 127.459 114.573 127.749C114.448 128.067 114.351 128.136 114.115 128.08C113.893 128.025 113.795 128.08 113.74 128.288C113.698 128.481 113.587 128.536 113.393 128.481C113.171 128.426 113.087 128.508 112.963 128.895C112.824 129.282 112.74 129.365 112.518 129.309C112.31 129.254 112.213 129.309 112.157 129.53C112.102 129.737 111.991 129.82 111.797 129.793C111.574 129.765 111.477 129.862 111.366 130.207C111.255 130.593 111.186 130.649 110.922 130.593C110.644 130.524 110.589 130.58 110.506 131.008C110.422 131.422 110.367 131.491 110.103 131.449C109.839 131.394 109.756 131.463 109.631 131.905C109.506 132.306 109.423 132.402 109.215 132.347C109.007 132.292 108.909 132.388 108.784 132.789C108.659 133.175 108.562 133.286 108.354 133.231C108.146 133.175 108.049 133.3 107.868 133.907C107.674 134.501 107.577 134.639 107.341 134.611C107.105 134.584 107.022 134.722 106.869 135.302C106.702 135.896 106.619 136.02 106.383 135.992C106.147 135.965 106.05 136.116 105.828 136.89C105.62 137.621 105.495 137.829 105.259 137.856C105.023 137.884 104.912 138.119 104.634 139.113C104.356 140.121 104.259 140.328 104.065 140.273C103.773 140.204 103.565 140.88 102.607 145.105C101.913 148.198 101.9 148.322 102.191 148.322C102.441 148.322 102.441 148.557 102.191 149.703C101.927 150.877 101.941 151.084 102.205 151.084C102.441 151.084 102.441 151.457 102.177 152.686C102.108 153.045 102.135 153.141 102.371 153.21C102.607 153.293 102.621 153.362 102.524 153.956C102.371 154.701 102.441 154.95 102.746 154.95C102.899 154.95 102.954 155.033 102.899 155.185C102.857 155.323 102.788 155.654 102.746 155.944C102.663 156.358 102.691 156.455 102.927 156.524C103.163 156.607 103.19 156.704 103.135 157.159C103.065 157.615 103.093 157.712 103.301 157.712C103.496 157.712 103.524 157.808 103.482 158.25C103.44 158.706 103.482 158.816 103.69 158.871C103.912 158.927 103.954 159.037 103.898 159.451C103.843 159.866 103.884 159.976 104.107 160.031C104.329 160.086 104.356 160.183 104.301 160.625C104.245 161.094 104.273 161.163 104.495 161.163C104.69 161.163 104.759 161.26 104.759 161.509C104.759 161.73 104.842 161.854 104.967 161.854C105.12 161.854 105.175 162.006 105.175 162.392C105.175 162.807 105.231 162.945 105.439 163C105.633 163.041 105.689 163.152 105.633 163.359C105.578 163.594 105.62 163.649 105.869 163.649C106.147 163.649 106.175 163.704 106.119 164.201C106.078 164.657 106.119 164.753 106.314 164.753C106.48 164.753 106.563 164.864 106.563 165.085C106.563 165.306 106.661 165.444 106.855 165.485C107.063 165.54 107.133 165.637 107.063 165.789C107.008 165.955 107.063 166.051 107.258 166.093C107.41 166.134 107.535 166.286 107.535 166.438C107.535 166.604 107.66 166.742 107.827 166.783C108.021 166.838 108.09 166.949 108.049 167.114C108.007 167.28 108.076 167.377 108.299 167.432C108.535 167.487 108.604 167.584 108.548 167.777C108.507 167.943 108.576 168.053 108.771 168.109C108.951 168.15 109.062 168.288 109.062 168.468C109.062 168.675 109.145 168.758 109.354 168.758C109.576 168.758 109.631 168.827 109.576 169.034C109.52 169.241 109.59 169.338 109.839 169.393C110.089 169.462 110.159 169.545 110.103 169.724C110.048 169.89 110.117 169.986 110.311 170.042C110.478 170.083 110.589 170.221 110.589 170.401C110.589 170.594 110.672 170.691 110.867 170.691C111.047 170.691 111.144 170.787 111.144 170.953C111.144 171.105 111.269 171.271 111.422 171.312C111.574 171.353 111.699 171.505 111.699 171.643C111.699 171.809 111.88 171.947 112.255 172.058C112.713 172.196 112.81 172.279 112.74 172.486C112.685 172.679 112.74 172.748 112.976 172.789C113.185 172.817 113.296 172.927 113.296 173.093C113.296 173.286 113.448 173.397 113.851 173.521C114.24 173.632 114.392 173.742 114.365 173.908C114.337 174.06 114.448 174.17 114.684 174.225C114.934 174.281 115.017 174.377 114.961 174.543C114.906 174.722 115.031 174.819 115.503 174.943C116.002 175.068 116.1 175.151 116.044 175.358C115.989 175.565 116.1 175.648 116.585 175.744C117.03 175.841 117.182 175.938 117.168 176.117C117.155 176.297 117.307 176.407 117.751 176.517C118.182 176.642 118.362 176.752 118.362 176.932C118.362 177.084 118.543 177.222 118.917 177.332C119.264 177.443 119.473 177.581 119.473 177.719C119.473 177.871 119.75 178.022 120.375 178.202C121.041 178.395 121.277 178.52 121.277 178.699C121.277 178.879 121.513 179.003 122.166 179.169C122.79 179.348 123.04 179.472 123.026 179.624C123.012 179.776 123.179 179.887 123.498 179.969C125.081 180.37 125.428 180.508 125.358 180.701C125.275 180.881 125.927 181.143 127.177 181.392C128.093 181.585 128.509 181.764 128.454 181.944C128.356 182.151 128.953 182.317 133.576 183.38C138.115 184.402 138.226 184.429 138.365 184.194C138.462 184.029 139.419 184.153 141.363 184.595C141.599 184.65 141.682 184.609 141.682 184.429C141.682 184.291 141.751 184.222 141.863 184.264C141.96 184.305 142.529 184.415 143.126 184.512C144.014 184.65 144.222 184.65 144.319 184.498C144.43 184.333 145.027 184.36 145.957 184.595C146.179 184.65 146.263 184.609 146.263 184.429C146.263 184.25 146.346 184.208 146.61 184.277C147.554 184.512 148.164 184.526 148.248 184.319C148.317 184.153 148.428 184.139 148.914 184.236C149.4 184.346 149.525 184.333 149.622 184.167C149.719 184.001 149.886 183.974 150.358 184.043C150.843 184.098 150.996 184.07 151.066 183.905C151.107 183.78 151.218 183.711 151.302 183.739C151.399 183.766 151.676 183.822 151.926 183.863C152.273 183.918 152.37 183.891 152.37 183.711C152.37 183.532 152.481 183.504 153.064 183.573C153.633 183.642 153.758 183.615 153.758 183.435C153.758 183.283 153.856 183.242 154.119 183.297C154.355 183.338 154.508 183.297 154.55 183.159C154.619 182.993 154.772 182.966 155.244 183.035C155.716 183.09 155.841 183.076 155.841 182.91C155.841 182.772 155.979 182.703 156.257 182.703C156.521 182.703 156.673 182.634 156.673 182.51C156.673 182.358 156.812 182.33 157.243 182.386C157.673 182.455 157.853 182.413 157.937 182.261C158.006 182.123 158.186 182.068 158.409 182.123C158.672 182.165 158.756 182.123 158.756 181.944C158.756 181.764 158.839 181.723 159.089 181.764C159.339 181.82 159.45 181.764 159.491 181.571C159.547 181.364 159.644 181.336 159.922 181.405C160.199 181.474 160.282 181.433 160.282 181.267C160.282 181.129 160.407 181.046 160.629 181.046C160.852 181.046 160.976 180.963 160.976 180.825C160.976 180.66 161.06 180.618 161.323 180.687C161.573 180.756 161.698 180.715 161.754 180.563C161.809 180.453 161.99 180.356 162.17 180.356C162.378 180.356 162.503 180.273 162.503 180.135C162.503 179.969 162.601 179.928 162.837 179.969C163.086 180.025 163.197 179.969 163.253 179.776C163.295 179.583 163.392 179.528 163.586 179.597C163.794 179.652 163.891 179.597 163.947 179.417C164.016 179.224 164.127 179.169 164.377 179.224C164.627 179.265 164.724 179.224 164.724 179.058C164.724 178.92 164.849 178.837 165.071 178.837C165.293 178.837 165.418 178.754 165.418 178.63C165.418 178.506 165.543 178.423 165.751 178.423C165.987 178.423 166.126 178.299 166.251 177.995C166.39 177.677 166.501 177.594 166.709 177.65C166.89 177.691 167.001 177.636 167.042 177.443C167.098 177.235 167.195 177.18 167.431 177.235C167.681 177.304 167.764 177.235 167.875 176.863C167.972 176.531 168.07 176.435 168.306 176.448C168.486 176.476 168.625 176.379 168.68 176.2C168.75 176.007 168.861 175.938 169.041 175.979C169.236 176.034 169.333 175.938 169.472 175.579C169.596 175.22 169.708 175.109 169.916 175.137C170.124 175.164 170.221 175.068 170.318 174.722C170.415 174.391 170.54 174.281 170.762 174.281C170.985 174.281 171.11 174.17 171.207 173.825C171.304 173.494 171.401 173.397 171.609 173.425C171.831 173.452 171.928 173.356 172.026 173.01C172.123 172.707 172.262 172.541 172.456 172.513C172.678 172.486 172.817 172.292 172.983 171.781C173.178 171.215 173.275 171.091 173.483 171.146C173.691 171.202 173.789 171.077 173.983 170.456C174.177 169.862 174.274 169.724 174.469 169.766C174.677 169.821 174.774 169.655 175.01 168.827C175.26 167.998 175.343 167.832 175.565 167.888C175.815 167.957 175.94 167.639 176.356 165.996C176.44 165.665 176.565 165.499 176.759 165.471C176.981 165.444 177.092 165.25 177.259 164.643C177.495 163.842 198.038 75.3631 198.038 75.1974C198.038 75.156 198.163 75.1422 198.33 75.1836C198.496 75.225 198.635 75.1836 198.691 75.0593C198.746 74.9074 198.913 74.8798 199.44 74.9489C200.023 75.0317 200.121 75.0041 200.121 74.8108C200.121 74.6451 200.204 74.5899 200.37 74.6451C201.217 74.8798 201.509 74.8798 201.509 74.6589C201.509 74.4794 201.62 74.4518 202.203 74.5346C202.758 74.6037 202.897 74.5899 202.897 74.4242C202.897 74.2585 203.049 74.2447 203.813 74.3689C204.535 74.4794 204.743 74.4656 204.84 74.3137C204.923 74.1894 205.132 74.1618 205.59 74.2171C206.089 74.2861 206.228 74.2723 206.228 74.1066C206.228 73.9547 206.367 73.9271 206.922 73.9961C207.436 74.0514 207.616 74.0238 207.616 73.8995C207.616 73.7752 207.797 73.7476 208.31 73.8166C208.893 73.8995 209.004 73.8719 209.004 73.6924C209.004 73.5405 209.088 73.4853 209.254 73.5405C209.379 73.5681 209.823 73.6509 210.226 73.6924C210.85 73.7752 210.948 73.7614 210.948 73.5543C210.948 73.3334 211.225 73.3334 212.1 73.5681C212.252 73.6233 212.336 73.5681 212.336 73.4024C212.336 73.2091 212.433 73.1815 213.03 73.2643C213.599 73.3472 213.724 73.3196 213.724 73.1401C213.724 72.9882 213.821 72.9468 214.071 73.002C214.265 73.0434 214.571 73.0986 214.765 73.1401C215.029 73.1953 215.112 73.1539 215.112 72.9882C215.112 72.7949 215.223 72.7811 215.903 72.8639C216.333 72.9191 216.764 72.9882 216.875 73.0296C216.972 73.071 217.055 73.002 217.055 72.8777C217.055 72.6844 217.166 72.6568 217.735 72.7396C218.263 72.8087 218.416 72.7811 218.485 72.6154C218.554 72.4497 218.665 72.4359 219.096 72.5325C219.804 72.6982 219.831 72.6844 219.831 72.4359C219.831 72.2564 219.942 72.2426 220.47 72.3254C220.928 72.3945 221.136 72.3668 221.219 72.2426C221.317 72.0907 221.525 72.0907 222.247 72.1873C223.01 72.3116 223.163 72.2978 223.163 72.1321C223.163 71.9664 223.302 71.9388 223.857 72.0078C224.412 72.0769 224.551 72.0493 224.551 71.8974C224.551 71.6627 224.551 71.6627 225.356 71.8145C225.828 71.9112 225.939 71.8974 225.939 71.7179C225.939 71.5522 226.064 71.5384 226.619 71.6074C227.133 71.6765 227.313 71.6488 227.369 71.5108C227.424 71.3589 227.591 71.3451 228.118 71.4279C229.104 71.5936 229.27 71.5798 229.27 71.3313C229.27 71.1242 229.576 71.1242 230.422 71.3589C230.575 71.4141 230.658 71.3589 230.658 71.207C230.658 71.0137 230.756 70.9861 231.352 71.0689C231.935 71.1518 232.047 71.1242 232.047 70.9446C232.047 70.779 232.144 70.7375 232.394 70.7928C232.588 70.8342 232.893 70.8894 233.088 70.9308C233.337 70.9861 233.435 70.9446 233.435 70.7928C233.435 70.5995 233.56 70.5857 234.17 70.6547C234.559 70.6961 235.003 70.7652 235.142 70.8066C235.295 70.8618 235.378 70.8066 235.378 70.6547C235.378 70.4752 235.489 70.4476 236.058 70.5304C236.586 70.5995 236.738 70.5718 236.808 70.4062C236.877 70.2405 236.988 70.2267 237.418 70.3233C238.126 70.489 238.154 70.4752 238.154 70.2267C238.154 70.0472 238.265 70.0333 238.793 70.1162C239.251 70.1852 239.459 70.1576 239.542 70.0333C239.639 69.8815 239.848 69.8815 240.569 69.9781C241.333 70.1024 241.486 70.0886 241.486 69.9229C241.486 69.7572 241.624 69.7296 242.18 69.7986C242.735 69.8677 242.874 69.84 242.874 69.6882C242.874 69.4534 242.874 69.4534 243.679 69.6053C244.151 69.702 244.262 69.6882 244.262 69.5087C244.262 69.343 244.387 69.3292 244.9 69.3982C245.386 69.4534 245.594 69.4258 245.705 69.2877C245.816 69.1359 245.997 69.1082 246.455 69.1911C246.927 69.2877 247.038 69.2739 247.038 69.0944C247.038 68.9426 247.177 68.9011 247.676 68.9702C248.134 69.0116 248.329 68.984 248.384 68.8459C248.426 68.7354 248.606 68.6526 248.787 68.6526C248.995 68.6526 249.12 68.5697 249.12 68.4317C249.12 68.266 249.203 68.2246 249.453 68.2936C249.717 68.3626 249.814 68.3074 249.883 68.1141C249.939 67.9346 250.05 67.8794 250.3 67.9346C250.55 67.976 250.647 67.9346 250.647 67.7689C250.647 67.6308 250.772 67.548 250.98 67.548C251.23 67.548 251.327 67.4375 251.438 67.0923C251.535 66.761 251.632 66.6643 251.841 66.6919C252.063 66.7195 252.16 66.5953 252.326 66.0706C252.479 65.5873 252.618 65.394 252.826 65.3664C253.021 65.3388 253.159 65.1593 253.256 64.8141C253.368 64.4413 260.447 33.9818 260.988 31.5378C261.044 31.3031 261.002 31.234 260.78 31.234C260.516 31.234 260.502 31.1788 260.572 30.7094C260.627 30.4332 260.697 30.088 260.738 29.9499C260.78 29.7704 260.711 29.6738 260.502 29.6185C260.239 29.5495 260.211 29.4667 260.28 29.011C260.363 28.5415 260.336 28.4725 260.086 28.4725C259.878 28.4725 259.808 28.3759 259.808 28.1273C259.808 27.865 259.739 27.7821 259.517 27.7821C259.295 27.7821 259.253 27.7269 259.322 27.5198C259.378 27.3265 259.322 27.2298 259.114 27.1608C258.962 27.1194 258.837 26.9537 258.837 26.8156C258.837 26.6913 258.712 26.5395 258.559 26.498C258.392 26.4566 258.281 26.3047 258.281 26.139C258.281 25.9457 258.198 25.8491 258.004 25.8491C257.823 25.8491 257.726 25.7524 257.726 25.6005C257.726 25.4072 257.518 25.2692 256.935 25.0759C256.463 24.924 256.13 24.7169 256.088 24.5788C256.06 24.4269 255.797 24.275 255.45 24.1784C253.992 23.8056 253.631 23.6675 253.631 23.5018C253.631 23.2256 252.743 23.0323 252.396 23.2256C252.174 23.3361 251.855 23.3223 251.091 23.1566C249.842 22.9081 249.675 22.8943 249.675 23.129Z" fill="#ECAC64"/>
<path d="M320.445 626.947C320.414 626.77 320.405 626.829 320.445 626.947V626.947ZM396.682 627.608C396.777 627.5 396.771 627.54 396.682 627.608V627.608Z" fill="#CC4C94"/>
<path d="M447.826 492.958C411.996 546.454 370.172 533.521 315.194 526.895C303.845 525.528 303.994 536.082 307.055 543.353C315.787 559.028 331.58 567.496 343.292 578.41C358.015 591.302 376.688 603.286 389.993 618.849C394.482 624.102 393.63 629.669 386.533 629.465C373.067 629.096 357.075 625.528 343.734 623.792C336.17 622.724 328.507 620.919 320.646 621.365C314.925 621.184 311.209 628.706 315.475 634.395C328.577 649.438 378.028 670.14 383.063 697.639C389.562 733.24 345.268 756.168 324.754 753.484C324.623 753.467 324.487 753.524 324.375 753.642C324.263 753.761 324.185 753.932 324.157 754.118C324.118 754.382 324.154 754.646 324.258 754.853C324.362 755.06 324.525 755.191 324.711 755.219C350.791 760.801 403.924 727.316 385.402 686.254C375.535 664.411 345.436 652.107 327.533 634.911C326.565 633.982 323.624 630.875 328.497 631.918C349.219 636.385 369.998 641.624 391.419 641.5C411.084 640.626 406.43 620.202 395.735 609.113C376.81 586.682 349.432 567.939 329.06 547.594C325.821 544.361 325.621 541.754 330.449 542.332C377.34 547.984 421.532 547.551 448.651 498.266L448.842 494.47L447.826 492.958Z" fill="#CC4C94"/>
</svg>
