<svg width="89" height="44" viewBox="0 0 89 44" fill="none" xmlns="http://www.w3.org/2000/svg">
<path d="M6.84043 27.9314C4.64716 28.2999 2.82287 27.1948 2.86542 25.5166C2.90531 23.8226 4.5188 22.6105 6.62332 22.7761C4.94748 22.5547 3.19236 22.0546 3.2397 20.0186C3.29247 18.1115 4.84221 16.4234 6.98814 16.0629C8.4398 15.819 10.0345 16.3299 10.7118 17.368L9.00417 18.9853C8.51149 18.3704 7.71409 18.0663 6.94092 18.1962C6.10464 18.3367 5.38992 18.911 5.38298 19.6423C5.35268 20.6208 6.34965 20.6643 7.41252 20.8102C9.53042 21.152 10.9071 21.9104 10.8622 23.7675C10.8095 25.772 9.19148 27.5364 6.84043 27.9314ZM5.02132 24.7326C4.99607 25.548 5.86201 25.9704 6.90342 25.7954C7.94483 25.6205 8.70676 24.9409 8.7267 24.0938C8.75713 23.2126 7.90191 22.9507 6.87061 22.7995L6.73175 23.2284C5.91895 23.2189 5.04656 23.9171 5.02132 24.7326ZM17.5445 26.1331C14.3414 26.6712 11.8423 24.4465 11.9222 21.1558C12.0179 17.8624 14.6469 14.7762 17.8501 14.2381C21.0216 13.7053 23.5365 15.9273 23.4408 19.2207C23.3609 22.5114 20.7161 25.6003 17.5445 26.1331ZM14.0682 20.7953C14.013 22.8813 15.5694 24.3233 17.6049 23.9814C19.6088 23.6447 21.2555 21.6645 21.2949 19.5812C21.3501 17.4953 19.8094 16.0505 17.8055 16.3872C15.77 16.7292 14.1233 18.7093 14.0682 20.7953ZM30.2724 23.9949C27.0693 24.533 24.5702 22.3083 24.6501 19.0176C24.7458 15.7242 27.3748 12.638 30.5779 12.0999C33.7495 11.567 36.2644 13.7891 36.1687 17.0825C36.0888 20.3732 33.444 23.462 30.2724 23.9949ZM26.796 18.657C26.7409 20.743 28.2973 22.1851 30.3328 21.8431C32.3367 21.5065 33.9834 19.5263 34.0228 17.443C34.0779 15.357 32.5373 13.9123 30.5334 14.2489C28.4979 14.5909 26.8512 16.5711 26.796 18.657ZM37.675 22.5079L37.9654 11.1021L40.4111 10.6913L44.4842 17.7459L44.6714 9.97555L46.8173 9.61503L46.527 21.0208L44.1128 21.4263L40.0344 14.3401L39.8209 22.1474L37.675 22.5079ZM49.4308 20.7438C48.705 20.8658 48.152 20.3746 48.1878 19.6223C48.1921 18.8752 48.7778 18.209 49.5037 18.087C50.2137 17.9678 50.7641 18.4432 50.7598 19.1902C50.7239 19.9425 50.1409 20.6245 49.4308 20.7438ZM53.8532 20.0009C53.1274 20.1228 52.5744 19.6317 52.6102 18.8793C52.6145 18.1323 53.2002 17.466 53.9261 17.3441C54.6361 17.2248 55.1865 17.7002 55.1822 18.4472C55.1463 19.1996 54.5633 19.8816 53.8532 20.0009ZM58.2756 19.2579C57.5498 19.3799 56.9968 18.8887 57.0326 18.1364C57.0369 17.3893 57.6227 16.7231 58.3485 16.6011C59.0585 16.4819 59.6089 16.9572 59.6046 17.7043C59.5688 18.4566 58.9857 19.1386 58.2756 19.2579Z" fill="white"/>
<path d="M88.2211 33.8696C85.7297 33.6117 83.161 33.1346 81.0178 31.239C81.0075 31.23 80.9954 31.2235 80.9822 31.2199C80.9691 31.2163 80.9553 31.2157 80.9419 31.2182C80.9285 31.2207 80.9158 31.2261 80.9048 31.2342C80.8939 31.2423 80.8848 31.2527 80.8785 31.2648C80.8478 31.3237 80.8338 31.3899 80.8379 31.4563C80.842 31.5226 80.864 31.5866 80.9017 31.6413C81.9075 33.0263 83.5452 33.8129 85.0901 34.4551C75.5192 34.5221 66.0412 37.0341 56.6689 38.7286C53.1356 39.1748 45.0631 41.3979 41.7258 39.7757C41.6352 39.731 41.5549 39.6677 41.4904 39.5899C41.4258 39.5121 41.3784 39.4217 41.3511 39.3243C41.3239 39.227 41.3174 39.125 41.3322 39.025C41.347 38.9251 41.3827 38.8293 41.437 38.744C43.6601 35.2443 61.4479 33.6659 65.0766 30.7928C69.541 27.8372 67.1166 24.42 61.6722 24.4793C54.015 24.567 46.5074 25.6631 39.0384 26.9939C27.2702 29.3666 15.5948 32.152 4.10508 35.6311C4.08624 35.637 4.06876 35.6465 4.05363 35.6592C4.03849 35.6718 4.02601 35.6874 4.0169 35.7049C4.00779 35.7224 4.00223 35.7415 4.00055 35.7611C3.99886 35.7808 4.00108 35.8006 4.00708 35.8194C4.01907 35.8584 4.04551 35.8913 4.08099 35.9115C4.11646 35.9316 4.1583 35.9374 4.19793 35.9277C18.669 32.1984 33.3697 29.1474 48.2018 27.195C52.6069 26.6999 57.0764 26.1995 61.4711 26.5889C63.7303 26.7798 66.6911 27.734 62.9979 29.2995C57.4864 31.4376 51.3663 31.8786 45.6279 33.4853C43.2088 34.2101 40.5291 34.8523 38.8269 36.9284C35.8507 41.9189 41.8883 43.9976 45.9039 43.4302C59.1886 42.2825 71.5965 36.9826 84.7316 35.203C83.6252 35.9406 82.5704 37.0083 82.248 38.3366C82.2295 38.4238 82.2413 38.5148 82.2815 38.5945C82.2915 38.6144 82.3061 38.6318 82.324 38.6452C82.3419 38.6586 82.3627 38.6677 82.3847 38.6717C82.4067 38.6757 82.4293 38.6745 82.4508 38.6683C82.4723 38.662 82.492 38.6509 82.5085 38.6357C84.1804 37.1407 86.1861 36.068 88.3578 35.5073C88.552 35.4621 88.7235 35.3486 88.8408 35.1874C88.9582 35.0262 89.0137 34.8281 88.9971 34.6294C88.9805 34.4307 88.893 34.2446 88.7505 34.1051C88.608 33.9656 88.4201 33.882 88.2211 33.8696Z" fill="white"/>
</svg>
